# xmcd
#
# Track frame offsets: 
#        150
#        11912
#        23307
#        39142
#        55745
#        69367
#        81295
#        99320
#        112117
#        127640
#
# Disc length: 1891 seconds
#
# Revision: 0
# Processed by: cddbd v1.4PL0 Copyright (c) Steve Scherf et al.
# Submitted via: ExactAudioCopy v0.90b3
#
DISCID=6a07610a
DTITLE=Perfect Stranger - It's Up To You
DYEAR=1900
DGENRE=Country
TTITLE0=It's Up To You
TTITLE1=One More Repossession
TTITLE2=You Have The Right To Remain Silent
TTITLE3=Even The Jukebox Can't Forget
TTITLE4=Ridin' The Rodeo
TTITLE5=I Ain't Never
TTITLE6=I'm A Stranger Here Myself
TTITLE7=Cut Me Off
TTITLE8=We Robbed Trains
TTITLE9=Drinkin' Thing
EXTD=
EXTT0=
EXTT1=
EXTT2=
EXTT3=
EXTT4=
EXTT5=
EXTT6=
EXTT7=
EXTT8=
EXTT9=
PLAYORDER=
